{"accessors" : [{"bufferView" : 0, "byteOffset" : 0, "componentType" : 5123, "count" : 744, "type" : "SCALAR", "max" : [624], "min" : [0]}, {"bufferView" : 1, "byteOffset" : 0, "componentType" : 5126, "count" : 625, "type" : "VEC3", "max" : [2.5, 2.5, 1.5], "min" : [-2.5, -2.5, -1.5], "name" : "POSITION"}, {"bufferView" : 1, "byteOffset" : 12, "componentType" : 5126, "count" : 625, "type" : "VEC2", "max" : [0.25881901383399963, 0.49811500310897827], "min" : [-0.25, -0.49811500310897827], "name" : "TEXCOORD_0"}, {"bufferView" : 1, "byteOffset" : 20, "componentType" : 5126, "count" : 625, "type" : "VEC3", "max" : [1.0000044107437134, 1.0000044107437134, 1.0000044107437134], "min" : [-1.0000044107437134, -1.0000044107437134, -1.0000044107437134], "name" : "NORMAL"}], "asset" : {"generator" : "Aspose.3D 23.6.0", "version" : "2.0"}, "buffers" : [{"uri" : "data:application/octet-stream;base64,", "byteLength" : 25304}], "bufferViews" : [{"buffer" : 0, "byteOffset" : 0, "byteLength" : 1488, "target" : 34963}, {"buffer" : 0, "byteOffset" : 1492, "byteLength" : 23808, "byteStride" : 32, "target" : 34962}], "meshes" : [{"primitives" : [{"attributes" : {"POSITION" : 1, "TEXCOORD_0" : 2, "NORMAL" : 3}, "indices" : 0, "mode" : 4}], "name" : ""}], "nodes" : [{"mesh" : 0, "name" : "Body1"}], "scene" : 0, "scenes" : [{"nodes" : [0]}]}