{"accessors" : [{"bufferView" : 0, "byteOffset" : 0, "componentType" : 5123, "count" : 1164, "type" : "SCALAR", "max" : [938], "min" : [0]}, {"bufferView" : 1, "byteOffset" : 0, "componentType" : 5126, "count" : 939, "type" : "VEC3", "max" : [3.9960529804229736, 3, 2], "min" : [0.0039470000192523, 0, -2], "name" : "POSITION"}], "asset" : {"generator" : "Aspose.3D 23.6.0", "version" : "2.0"}, "buffers" : [{"uri" : "data:application/octet-stream;base64,", "byteLength" : 16304}], "bufferViews" : [{"buffer" : 0, "byteOffset" : 0, "byteLength" : 2328, "target" : 34963}, {"buffer" : 0, "byteOffset" : 2332, "byteLength" : 13968, "byteStride" : 12, "target" : 34962}], "materials" : [{"name" : "", "pbrMetallicRoughness" : {"baseColorFactor" : [0.792157, 0.819608, 0.933333, 1], "metallicFactor" : 0, "roughnessFactor" : 0}, "emissiveFactor" : [0, 0, 0], "alphaMode" : "OPAQUE", "doubleSided" : false}], "meshes" : [{"primitives" : [{"attributes" : {"POSITION" : 1}, "indices" : 0, "material" : 0, "mode" : 4}], "name" : ""}], "nodes" : [{"mesh" : 0}], "scene" : 0, "scenes" : [{"nodes" : [0]}]}